HIERARCHY
ROOT Hips
{
  OFFSET 54.5668 96.1152 9.29876
  CHANNELS 6 Xposition Yposition Zposition Zrotation Xrotation Yrotation
  JOINT spine
  {
    OFFSET 0 8.13249 0.467659
    CHANNELS 3 Zrotation Xrotation Yrotation
    JOINT spine1
    {
      OFFSET 0 10.3498 0
      CHANNELS 3 Zrotation Xrotation Yrotation
      JOINT spine2
      {
        OFFSET 0 9.91699 0
        CHANNELS 3 Zrotation Xrotation Yrotation
        JOINT Neck
        {
          OFFSET 0 25.461 1.2139
          CHANNELS 3 Zrotation Xrotation Yrotation
          JOINT Head
          {
            OFFSET 0 7.69245 0
            CHANNELS 3 Zrotation Xrotation Yrotation
            End Site
            {
              OFFSET 0 18.62 -6.14063
            }
          }
        }
        JOINT RightShoulder
        {
          OFFSET -4.17575 10.7096 -0.581445
          CHANNELS 3 Zrotation Xrotation Yrotation
          JOINT RightArm
          {
            OFFSET 0 14.0466 0
            CHANNELS 3 Zrotation Xrotation Yrotation
            JOINT RightArmRoll
            {
              OFFSET 0 7.09099 0
              CHANNELS 3 Zrotation Xrotation Yrotation
              JOINT RightForeArm
              {
                OFFSET 0 20.6535 0
                CHANNELS 3 Zrotation Xrotation Yrotation
                JOINT RightForeArmRoll
                {
                  OFFSET 0 7.95718 0
                  CHANNELS 3 Zrotation Xrotation Yrotation
                  JOINT RightHand
                  {
                    OFFSET 0 15.9683 0
                    CHANNELS 3 Zrotation Xrotation Yrotation
                    End Site
                    {
                      OFFSET 0 0 0
                    }
                  }
                }
              }
            }
          }
        }
        JOINT LeftShoulder
        {
          OFFSET 4.17575 10.7096 -0.581445
          CHANNELS 3 Zrotation Xrotation Yrotation
          JOINT LeftArm
          {
            OFFSET 0 14.0466 0
            CHANNELS 3 Zrotation Xrotation Yrotation
            JOINT LeftArmRoll
            {
              OFFSET 0 7.09098 0
              CHANNELS 3 Zrotation Xrotation Yrotation
              JOINT LeftForeArm
              {
                OFFSET 0 20.6535 0
                CHANNELS 3 Zrotation Xrotation Yrotation
                JOINT LeftForeArmRoll
                {
                  OFFSET 0 7.95718 0
                  CHANNELS 3 Zrotation Xrotation Yrotation
                  JOINT LeftHand
                  {
                    OFFSET 0 15.9683 0
                    CHANNELS 3 Zrotation Xrotation Yrotation
                    End Site
                    {
                      OFFSET 0 0 0
                    }
                  }
                }
              }
            }
          }
        }
      }
    }
  }
  JOINT RightUpLeg
  {
    OFFSET -7.20834 -1.32182 -1.10884
    CHANNELS 3 Zrotation Xrotation Yrotation
    JOINT RightUpLegRoll
    {
      OFFSET 0 18.7238 0
      CHANNELS 3 Zrotation Xrotation Yrotation
      JOINT RightLeg
      {
        OFFSET 0 -23.1866 0
        CHANNELS 3 Zrotation Xrotation Yrotation
        JOINT RightLegRoll
        {
          OFFSET 0 23.2624 0
          CHANNELS 3 Zrotation Xrotation Yrotation
          JOINT RightFoot
          {
            OFFSET 0 19.3621 0
            CHANNELS 3 Zrotation Xrotation Yrotation
            JOINT RightToeBase
            {
              OFFSET 0 16.1857 0
              CHANNELS 3 Zrotation Xrotation Yrotation
              End Site
              {
                OFFSET 0.00686052 7.83863 -0.903521
              }
            }
          }
        }
      }
    }
  }
  JOINT LeftUpLeg
  {
    OFFSET 7.20834 -1.32182 -1.10884
    CHANNELS 3 Zrotation Xrotation Yrotation
    JOINT LeftUpLegRoll
    {
      OFFSET 0 18.7239 0
      CHANNELS 3 Zrotation Xrotation Yrotation
      JOINT LeftLeg
      {
        OFFSET 0 23.1865 0
        CHANNELS 3 Zrotation Xrotation Yrotation
        JOINT LeftLegRoll
        {
          OFFSET 0 23.4775 0
          CHANNELS 3 Zrotation Xrotation Yrotation
          JOINT LeftFoot
          {
            OFFSET 0 19.147 0
            CHANNELS 3 Zrotation Xrotation Yrotation
            JOINT LeftToeBase
            {
              OFFSET 0 16.1857 0
              CHANNELS 3 Zrotation Xrotation Yrotation
              End Site
              {
                OFFSET -0.0307459 7.83863 -0.903522
              }
            }
          }
        }
      }
    }
  }
}
MOTION
Frames: 6
Frame Time: 0.00208333
54.5783 96.137 7.73192 -1.87111 -3.85237 0.804622 0.202788 -1.3137 0.0885456 0.411007 1.39339 0.151287 0.409527 3.03844 0.1445 1.62606 5.62896 -10.1583 6.7632 8.13731 -9.80849 33.7726 -17.8614 -13.9972 52.2993 44.6935 55.3386 -2.26061e-005 5.72512e-007 1.91758e-006 0.216843 63.6567 1.52555 -1.16648e-006 -3.44455e-006 -3.01013 8.02975 -4.95139 0.69767 -64.1684 -5.21832 3.55552 -103.183 16.8071 -11.5419 -2.23506e-006 -4.61563e-007 1.45842e-005 -8.02395 0.0665063 1.15138 1.42948e-005 8.86202e-007 3.03675 -8.02901 -4.95145 -0.697681 173.912 -0.876438 3.55043 180 7.01545e-015 178.912 178.057 7.2348 179.78 1.83056e-006 2.6729e-006 -0.0462728 -16.6335 67.1174 18.8517 8.13649 25.2327 -3.48774 -170.491 0.778567 -3.29919 4.5067e-006 -1.99009e-005 -0.867458 -1.04324 -13.3718 0.541283 5.55906e-006 2.17578e-006 -0.142146 19.0897 71.5053 -22.6754 -8.13669 25.2356 3.48375 
54.5752 96.1372 7.73728 -1.86792 -3.83877 0.810805 0.202575 -1.31527 0.0893518 0.410347 1.38866 0.151799 0.408869 3.03371 0.145027 1.5953 5.64862 -10.1547 6.74534 8.14095 -9.81172 33.7722 -17.8626 -13.9985 52.2567 44.6978 55.5245 -2.26061e-005 5.72512e-007 1.91758e-006 0.051587 63.0644 1.6403 -1.16648e-006 -3.44455e-006 -3.01013 8.02975 -4.95139 0.69767 -64.1654 -5.22466 3.55889 -103.176 16.7883 -11.5512 -2.23506e-006 -4.61563e-007 1.45842e-005 -8.02344 0.0665026 1.15085 1.42948e-005 8.86202e-007 3.03677 -8.02901 -4.95145 -0.697681 173.909 -0.862727 3.54995 180 7.01545e-015 178.913 178.058 7.23911 179.781 1.83056e-006 2.6729e-006 -0.0462882 -16.6346 67.1218 18.8549 8.13649 25.2327 -3.48774 -170.495 0.786661 -3.29655 4.5067e-006 -1.99009e-005 -0.86738 -1.04431 -13.3614 0.540897 5.55906e-006 2.17578e-006 -0.14187 19.0855 71.5008 -22.6741 -8.13669 25.2356 3.48375 
54.5849 96.1379 7.73627 -1.86492 -3.8246 0.817015 0.202374 -1.31691 0.0901406 0.409692 1.38365 0.152236 0.408215 3.0287 0.145478 1.56535 5.66932 -10.151 6.72666 8.14286 -9.81455 33.7719 -17.8638 -13.9998 52.2132 44.7034 55.7102 -2.26061e-005 5.72512e-007 1.91758e-006 -0.111765 62.4702 1.75143 -1.16648e-006 -3.44455e-006 -3.01013 8.02975 -4.95139 0.69767 -64.1618 -5.23134 3.56241 -103.168 16.7694 -11.5603 -2.23506e-006 -4.61563e-007 1.45842e-005 -8.02293 0.0664988 1.15028 1.42948e-005 8.86202e-007 3.03679 -8.02901 -4.95145 -0.697681 173.907 -0.848454 3.5493 180 7.01545e-015 178.913 178.059 7.24333 179.781 1.83056e-006 2.6729e-006 -0.0463032 -16.6359 67.1263 18.8582 8.13649 25.2327 -3.48774 -170.497 0.795256 -3.294 4.5067e-006 -1.99009e-005 -0.867305 -1.04537 -13.3508 0.540533 5.55906e-006 2.17578e-006 -0.141598 19.0814 71.4963 -22.6732 -8.13669 25.2356 3.48375 
54.5911 96.1347 7.72222 -1.86205 -3.80999 0.823196 0.202181 -1.3186 0.0909048 0.409038 1.37843 0.152617 0.407564 3.02348 0.145875 1.53608 5.69095 -10.1471 6.70729 8.14338 -9.81698 33.7716 -17.8648 -14.0009 52.1687 44.7103 55.8959 -2.26061e-005 5.72512e-007 1.91758e-006 -0.273366 61.8737 1.85899 -1.16648e-006 -3.44455e-006 -3.01013 8.02975 -4.95139 0.69767 -64.1577 -5.23831 3.56607 -103.162 16.7503 -11.5695 -2.23506e-006 -4.61563e-007 1.45842e-005 -8.0224 0.066495 1.14966 1.42948e-005 8.86202e-007 3.03681 -8.02901 -4.95145 -0.697681 173.904 -0.833751 3.54856 180 7.01545e-015 178.913 178.061 7.24743 179.781 1.83056e-006 2.6729e-006 -0.0463179 -16.6373 67.1308 18.8615 8.13649 25.2327 -3.48774 -170.5 0.804274 -3.2915 4.5067e-006 -1.99009e-005 -0.867234 -1.04641 -13.3403 0.54019 5.55906e-006 2.17578e-006 -0.14133 19.0775 71.4917 -22.6724 -8.13669 25.2356 3.48375 
54.5861 96.1345 7.7262 -1.85927 -3.79507 0.829293 0.201996 -1.32035 0.0916373 0.408385 1.37305 0.152965 0.406912 3.0181 0.146237 1.50735 5.71337 -10.1431 6.68736 8.14284 -9.81907 33.7715 -17.8658 -14.0019 52.1229 44.7186 56.082 -2.26061e-005 5.72512e-007 1.91758e-006 -0.433362 61.2747 1.96305 -1.16648e-006 -3.44455e-006 -3.01012 8.02975 -4.95139 0.69767 -64.1533 -5.24554 3.56986 -103.155 16.731 -11.5788 -2.23506e-006 -4.61563e-007 1.45842e-005 -8.02179 0.0664913 1.14901 1.42948e-005 8.86202e-007 3.03683 -8.02901 -4.95145 -0.697681 173.902 -0.81875 3.54778 180 7.01545e-015 178.913 178.062 7.25143 179.782 1.83056e-006 2.6729e-006 -0.0463323 -16.6388 67.1352 18.8648 8.13649 25.2327 -3.48774 -170.503 0.813638 -3.28901 4.5067e-006 -1.99009e-005 -0.86717 -1.04743 -13.3298 0.539868 5.55906e-006 2.17578e-006 -0.141068 19.0736 71.4872 -22.6718 -8.13669 25.2356 3.48375 
54.5826 96.1291 7.73833 -1.85652 -3.77995 0.83525 0.201814 -1.32215 0.092331 0.407731 1.36756 0.1533 0.406257 3.0126 0.146587 1.479 5.73647 -10.1389 6.66702 8.14158 -9.82082 33.7713 -17.8668 -14.0029 52.0758 44.7286 56.2688 -2.26061e-005 5.72512e-007 1.91758e-006 -0.591892 60.673 2.06364 -1.16648e-006 -3.44455e-006 -3.01012 8.02975 -4.95139 0.69767 -64.1488 -5.25297 3.57375 -103.149 16.7117 -11.5883 -2.23506e-006 -4.61563e-007 1.45842e-005 -8.02105 0.0664876 1.14835 1.42948e-005 8.86202e-007 3.03685 -8.02901 -4.95145 -0.697681 173.899 -0.803581 3.54704 180 7.01545e-015 178.913 178.063 7.2553 179.782 1.83056e-006 2.6729e-006 -0.0463464 -16.6403 67.1396 18.868 8.13649 25.2327 -3.48774 -170.506 0.823269 -3.28649 4.5067e-006 -1.99009e-005 -0.867111 -1.04841 -13.3194 0.539569 5.55906e-006 2.17578e-006 -0.140814 19.0698 71.4826 -22.6712 -8.13669 25.2356 3.48375 
